# xmcd CD database file
# Copyright (C) 1995-1998 Ti Kan
#
# Track frame offsets:
#	150
#	21959
#	24309
#	44809
#	75530
#	81942
#	101319
#	113922
#	116481
#	135940
#	147238
#	171353
#	178994
#	205454
#
# Disc length: 2847 seconds
#
# Revision: 1
# Processed by: cddbd v1.4PL0 Copyright (c) Steve Scherf et al.
# Submitted via: CDex 1.30Release
#
DISCID=be0b1d0e
DTITLE=Peter Buffett - Ojibwe
DYEAR=2002
DGENRE=Native American
TTITLE0=Seventh Fire
TTITLE1=Words Are Songs
TTITLE2=Walking the Path
TTITLE3=Anishinaabeg Streets
TTITLE4=Will I Dream
TTITLE5=Sweetgrass Song
TTITLE6=In the Beginning
TTITLE7=Returning
TTITLE8=Road of Souls
TTITLE9=The Long Walk
TTITLE10=Spirit Birds
TTITLE11=Two Words
TTITLE12=Day Break
TTITLE13=My Prayer
EXTD=YEAR: 2002 ID3G:  64
EXTT0=
EXTT1=
EXTT2=
EXTT3=
EXTT4=
EXTT5=
EXTT6=
EXTT7=
EXTT8=
EXTT9=
EXTT10=
EXTT11=
EXTT12=
EXTT13=
PLAYORDER=
